<svg xmlns="http://www.w3.org/2000/svg" width="375" viewBox="0 0 375 375" height="375" version="1.0"><defs><clipPath id="a"><path d="M 151.03125 112.5 L 223.78125 112.5 L 223.78125 126 L 151.03125 126 Z M 151.03125 112.5"/></clipPath><clipPath id="b"><path d="M 151.03125 249 L 223.78125 249 L 223.78125 262.5 L 151.03125 262.5 Z M 151.03125 249"/></clipPath></defs><path fill="#99DDE3" d="M 178.5625 187.5 C 182.8125 187.5 187.40625 187.5 187.40625 187.5 L 187.40625 118.992188 L 155.617188 118.992188 C 155.617188 118.992188 155.617188 135.523438 155.617188 148.589844 C 155.617188 161.652344 178.5625 175.285156 178.5625 187.5"/><path fill="#99DDE3" d="M 196.25 187.5 C 192 187.5 187.40625 187.5 187.40625 187.5 L 187.40625 118.992188 L 219.195312 118.992188 C 219.195312 118.992188 219.195312 135.523438 219.195312 148.589844 C 219.195312 161.652344 196.25 175.285156 196.25 187.5"/><path fill="#CC5D1F" d="M 206.894531 150.710938 L 206.894531 148.164062 C 201.796875 148.140625 196.519531 146.925781 191.570312 145.410156 C 184.679688 143.296875 177.304688 141.335938 170.09375 143.023438 C 167.085938 143.726562 163.871094 144.691406 161.359375 146.5625 C 160.050781 147.53125 159.292969 148.609375 158.78125 149.84375 C 161.0625 161.402344 181.46875 177.058594 181.46875 187.5 L 193.34375 187.5 C 193.34375 177.3125 212.714844 162.28125 215.820312 150.710938 L 206.894531 150.710938"/><path fill="#F47126" d="M 208.84375 147.179688 C 200.640625 145.226562 192.246094 148.542969 184.757812 151.617188 C 180.800781 153.242188 176.816406 154.804688 172.554688 155.402344 C 169.144531 155.882812 164.488281 155.886719 161.527344 153.808594 C 160.691406 153.222656 159.925781 152.484375 159.269531 151.644531 C 163.09375 162.984375 181.46875 177.59375 181.46875 187.5 L 193.34375 187.5 C 193.34375 177.363281 212.519531 162.433594 215.773438 150.886719 C 213.683594 149.246094 211.460938 147.800781 208.84375 147.179688"/><path fill="#99DDE3" d="M 178.5625 187.5 C 182.8125 187.5 187.40625 187.5 187.40625 187.5 L 187.40625 256.007812 L 155.617188 256.007812 C 155.617188 256.007812 155.617188 239.476562 155.617188 226.414062 C 155.617188 213.347656 178.5625 199.714844 178.5625 187.5"/><path fill="#99DDE3" d="M 196.25 187.5 C 192 187.5 187.40625 187.5 187.40625 187.5 L 187.40625 256.007812 L 219.195312 256.007812 C 219.195312 256.007812 219.195312 239.476562 219.195312 226.414062 C 219.195312 213.347656 196.25 199.714844 196.25 187.5"/><path fill="#CC5D1F" d="M 197.398438 225.992188 C 194.433594 223.179688 189.621094 220.351562 185.191406 221.707031 C 181.027344 222.988281 180.832031 223.972656 172.019531 230.359375 C 163.203125 236.746094 158.570312 232.488281 158.570312 233.429688 C 158.570312 234.367188 158.570312 251.925781 158.570312 251.925781 L 216.242188 251.925781 C 216.242188 251.925781 216.242188 236.519531 216.242188 234.40625 C 216.242188 232.296875 205.511719 233.683594 197.398438 225.992188"/><path fill="#F47126" d="M 204.554688 234.214844 C 199.882812 233.257812 194.488281 231.554688 189.058594 230.222656 C 183.628906 228.890625 180.226562 233.363281 165.25 235.917969 C 161.03125 236.640625 158.570312 235.386719 158.570312 233.429688 C 158.570312 242.890625 158.570312 251.925781 158.570312 251.925781 L 216.242188 251.925781 C 216.242188 251.925781 216.242188 243.503906 216.242188 234.40625 C 216.242188 237.089844 209.230469 235.171875 204.554688 234.214844"/><g clip-path="url(#a)"><path fill="#35181D" d="M 223.789062 123.253906 C 223.789062 124.429688 222.839844 125.382812 221.667969 125.382812 L 153.144531 125.382812 C 151.972656 125.382812 151.019531 124.429688 151.019531 123.253906 L 151.019531 114.734375 C 151.019531 113.558594 151.972656 112.601562 153.144531 112.601562 L 221.667969 112.601562 C 222.839844 112.601562 223.789062 113.558594 223.789062 114.734375 L 223.789062 123.253906"/></g><g clip-path="url(#b)"><path fill="#35181D" d="M 223.789062 251.746094 C 223.789062 250.570312 222.839844 249.617188 221.667969 249.617188 L 153.144531 249.617188 C 151.972656 249.617188 151.019531 250.570312 151.019531 251.746094 L 151.019531 260.265625 C 151.019531 261.441406 151.972656 262.398438 153.144531 262.398438 L 221.667969 262.398438 C 222.839844 262.398438 223.789062 261.441406 223.789062 260.265625 L 223.789062 251.746094"/></g><path fill="#F47126" d="M 184.863281 187.5 C 184.863281 186.5625 184.105469 185.800781 183.164062 185.800781 C 182.230469 185.800781 181.46875 186.5625 181.46875 187.5 C 181.46875 188.4375 182.230469 189.203125 183.164062 189.203125 C 184.105469 189.203125 184.863281 188.4375 184.863281 187.5"/><path fill="#F47126" d="M 186.035156 189.359375 C 186.035156 188.917969 185.675781 188.558594 185.238281 188.558594 C 184.796875 188.558594 184.441406 188.917969 184.441406 189.359375 C 184.441406 189.796875 184.796875 190.15625 185.238281 190.15625 C 185.675781 190.15625 186.035156 189.796875 186.035156 189.359375"/><path fill="#F47126" d="M 189.257812 189.855469 C 189.257812 189.136719 188.679688 188.558594 187.964844 188.558594 C 187.25 188.558594 186.671875 189.136719 186.671875 189.855469 C 186.671875 190.570312 187.25 191.148438 187.964844 191.148438 C 188.679688 191.148438 189.257812 190.570312 189.257812 189.855469"/><path fill="#F47126" d="M 189.167969 186.445312 C 189.167969 185.0625 188.050781 183.941406 186.671875 183.941406 C 185.292969 183.941406 184.175781 185.0625 184.175781 186.445312 C 184.175781 187.828125 185.292969 188.949219 186.671875 188.949219 C 188.050781 188.949219 189.167969 187.828125 189.167969 186.445312"/><path fill="#F47126" d="M 191.066406 188.507812 C 191.066406 188.125 190.757812 187.8125 190.375 187.8125 C 189.992188 187.8125 189.683594 188.125 189.683594 188.507812 C 189.683594 188.890625 189.992188 189.203125 190.375 189.203125 C 190.757812 189.203125 191.066406 188.890625 191.066406 188.507812"/><path fill="#F47126" d="M 190.707031 187.4375 C 190.707031 186.785156 190.183594 186.257812 189.53125 186.257812 C 188.882812 186.257812 188.351562 186.785156 188.351562 187.4375 C 188.351562 188.089844 188.882812 188.617188 189.53125 188.617188 C 190.183594 188.617188 190.707031 188.089844 190.707031 187.4375"/><path fill="#F47126" d="M 193.011719 190.175781 C 193.011719 189.636719 192.574219 189.203125 192.039062 189.203125 C 191.503906 189.203125 191.066406 189.636719 191.066406 190.175781 C 191.066406 190.714844 191.503906 191.148438 192.039062 191.148438 C 192.574219 191.148438 193.011719 190.714844 193.011719 190.175781"/><path fill="#F47126" d="M 193.355469 187.648438 C 193.355469 187.285156 193.0625 186.988281 192.695312 186.988281 C 192.332031 186.988281 192.039062 187.285156 192.039062 187.648438 C 192.039062 188.015625 192.332031 188.308594 192.695312 188.308594 C 193.0625 188.308594 193.355469 188.015625 193.355469 187.648438"/><path fill="#F47126" d="M 193.011719 188.097656 C 193.011719 187.628906 192.628906 187.246094 192.160156 187.246094 C 191.691406 187.246094 191.3125 187.628906 191.3125 188.097656 C 191.3125 188.566406 191.691406 188.949219 192.160156 188.949219 C 192.628906 188.949219 193.011719 188.566406 193.011719 188.097656"/><path fill="#F47126" d="M 192.039062 187.570312 C 192.039062 187.164062 191.710938 186.832031 191.304688 186.832031 C 190.894531 186.832031 190.566406 187.164062 190.566406 187.570312 C 190.566406 187.980469 190.894531 188.308594 191.304688 188.308594 C 191.710938 188.308594 192.039062 187.980469 192.039062 187.570312"/><path fill="#F47126" d="M 190.109375 197.84375 C 190.109375 196.929688 189.367188 196.191406 188.460938 196.191406 C 187.550781 196.191406 186.8125 196.929688 186.8125 197.84375 C 186.8125 198.753906 187.550781 199.492188 188.460938 199.492188 C 189.367188 199.492188 190.109375 198.753906 190.109375 197.84375"/><path fill="#F47126" d="M 187.628906 194.824219 C 187.628906 194.382812 187.269531 194.027344 186.832031 194.027344 C 186.390625 194.027344 186.035156 194.382812 186.035156 194.824219 C 186.035156 195.265625 186.390625 195.625 186.832031 195.625 C 187.269531 195.625 187.628906 195.265625 187.628906 194.824219"/><path fill="#F47126" d="M 186.035156 192.335938 C 186.035156 192.011719 185.773438 191.75 185.449219 191.75 C 185.125 191.75 184.863281 192.011719 184.863281 192.335938 C 184.863281 192.664062 185.125 192.925781 185.449219 192.925781 C 185.773438 192.925781 186.035156 192.664062 186.035156 192.335938"/><path fill="#F47126" d="M 183.839844 191.453125 C 183.839844 191.128906 183.578125 190.867188 183.253906 190.867188 C 182.933594 190.867188 182.671875 191.128906 182.671875 191.453125 C 182.671875 191.777344 182.933594 192.039062 183.253906 192.039062 C 183.578125 192.039062 183.839844 191.777344 183.839844 191.453125"/><path fill="#F47126" d="M 184.863281 197.097656 C 184.863281 196.816406 184.632812 196.585938 184.351562 196.585938 C 184.070312 196.585938 183.839844 196.816406 183.839844 197.097656 C 183.839844 197.382812 184.070312 197.613281 184.351562 197.613281 C 184.632812 197.613281 184.863281 197.382812 184.863281 197.097656"/><path fill="#F47126" d="M 187.40625 200.6875 C 187.40625 200.308594 187.101562 200 186.71875 200 C 186.339844 200 186.035156 200.308594 186.035156 200.6875 C 186.035156 201.066406 186.339844 201.375 186.71875 201.375 C 187.101562 201.375 187.40625 201.066406 187.40625 200.6875"/><path fill="#F47126" d="M 190.109375 193.296875 C 190.109375 192.894531 189.78125 192.570312 189.378906 192.570312 C 188.980469 192.570312 188.65625 192.894531 188.65625 193.296875 C 188.65625 193.699219 188.980469 194.027344 189.378906 194.027344 C 189.78125 194.027344 190.109375 193.699219 190.109375 193.296875"/><path fill="#F47126" d="M 187.628906 192.269531 C 187.628906 192.101562 187.492188 191.96875 187.328125 191.96875 C 187.160156 191.96875 187.027344 192.101562 187.027344 192.269531 C 187.027344 192.433594 187.160156 192.570312 187.328125 192.570312 C 187.492188 192.570312 187.628906 192.433594 187.628906 192.269531"/><path fill="#F47126" d="M 187.964844 203.394531 C 187.964844 202.960938 188.316406 202.609375 188.75 202.609375 C 189.179688 202.609375 189.53125 202.960938 189.53125 203.394531 C 189.53125 203.828125 189.179688 204.179688 188.75 204.179688 C 188.316406 204.179688 187.964844 203.828125 187.964844 203.394531"/><path fill="#F47126" d="M 186.210938 207.285156 C 186.210938 207.0625 186.394531 206.878906 186.617188 206.878906 C 186.84375 206.878906 187.027344 207.0625 187.027344 207.285156 C 187.027344 207.511719 186.84375 207.695312 186.617188 207.695312 C 186.394531 207.695312 186.210938 207.511719 186.210938 207.285156"/><path fill="#F47126" d="M 189.578125 214.972656 C 189.578125 214.835938 189.464844 214.722656 189.328125 214.722656 C 189.191406 214.722656 189.082031 214.835938 189.082031 214.972656 C 189.082031 215.109375 189.191406 215.222656 189.328125 215.222656 C 189.464844 215.222656 189.578125 215.109375 189.578125 214.972656"/><path fill="#F47126" d="M 186.847656 220.015625 C 186.847656 219.835938 186.707031 219.695312 186.53125 219.695312 C 186.355469 219.695312 186.210938 219.835938 186.210938 220.015625 C 186.210938 220.191406 186.355469 220.332031 186.53125 220.332031 C 186.707031 220.332031 186.847656 220.191406 186.847656 220.015625"/><path fill="#F47126" d="M 188.460938 210.855469 C 188.460938 210.71875 188.351562 210.605469 188.210938 210.605469 C 188.074219 210.605469 187.964844 210.71875 187.964844 210.855469 C 187.964844 210.992188 188.074219 211.101562 188.210938 211.101562 C 188.351562 211.101562 188.460938 210.992188 188.460938 210.855469"/><path fill="#F47126" d="M 190.375 191.285156 C 190.375 190.90625 190.070312 190.597656 189.691406 190.597656 C 189.3125 190.597656 189.007812 190.90625 189.007812 191.285156 C 189.007812 191.660156 189.3125 191.96875 189.691406 191.96875 C 190.070312 191.96875 190.375 191.660156 190.375 191.285156"/><path fill="#F47126" d="M 190.390625 189.925781 C 190.390625 189.796875 190.285156 189.695312 190.160156 189.695312 C 190.03125 189.695312 189.929688 189.796875 189.929688 189.925781 C 189.929688 190.054688 190.03125 190.15625 190.160156 190.15625 C 190.285156 190.15625 190.390625 190.054688 190.390625 189.925781"/><path fill="#F47126" d="M 192.039062 192.207031 C 192.039062 192.003906 191.875 191.839844 191.675781 191.839844 C 191.472656 191.839844 191.3125 192.003906 191.3125 192.207031 C 191.3125 192.40625 191.472656 192.570312 191.675781 192.570312 C 191.875 192.570312 192.039062 192.40625 192.039062 192.207031"/></svg>