<svg xmlns="http://www.w3.org/2000/svg" width="24" viewBox="0 0 375 375" height="24" version="1.0"><defs><clipPath id="a"><path d="M 54.285156 8.386719 L 320.535156 8.386719 L 320.535156 365 L 54.285156 365 Z M 54.285156 8.386719"/></clipPath></defs><g clip-path="url(#a)"><path fill="#A6A6A6" d="M 187.410156 232.460938 C 140.84375 232.371094 103.816406 195.277344 103.816406 148.644531 C 103.816406 102 140.84375 64.90625 187.410156 64.816406 C 233.976562 64.90625 271.003906 102 271.003906 148.644531 C 271.003906 195.277344 233.976562 232.371094 187.410156 232.460938 Z M 188.898438 8.683594 L 185.921875 8.683594 C 113.210938 9.558594 54.320312 69.039062 54.320312 142.082031 C 54.320312 144.925781 54.464844 148.128906 54.753906 151.476562 C 57.527344 185.164062 70.1875 217.230469 90.058594 244.566406 C 114.609375 278.320312 158.523438 335.035156 177.859375 359.886719 C 182.96875 366.460938 192.800781 366.539062 198.054688 360.089844 C 218.632812 334.855469 258.570312 280.59375 284.761719 244.566406 C 304.632812 217.230469 317.292969 185.164062 320.066406 151.476562 C 320.355469 148.128906 320.5 144.925781 320.5 142.082031 C 320.5 69.039062 261.609375 9.558594 188.898438 8.683594"/></g></svg>