<svg xmlns="http://www.w3.org/2000/svg" xmlns:xlink="http://www.w3.org/1999/xlink" width="375" viewBox="120 100 375 375" height="375" version="1.0"><defs><clipPath id="b"><path d="M 211.71875 133.011719 L 234.96875 133.011719 L 234.96875 156.261719 L 211.71875 156.261719 Z M 211.71875 133.011719"/></clipPath><clipPath id="e"><path d="M 0.480469 1 L 81.359375 1 L 81.359375 76.601562 L 0.480469 76.601562 Z M 0.480469 1"/></clipPath><clipPath id="d"><path d="M0 0H82V77H0z"/></clipPath><clipPath id="f"><path d="M 145 133.011719 L 219 133.011719 L 219 221 L 145 221 Z M 145 133.011719"/></clipPath><clipPath id="i"><path d="M 0.199219 0.0117188 L 73 0.0117188 L 73 87.800781 L 0.199219 87.800781 Z M 0.199219 0.0117188"/></clipPath><clipPath id="h"><path d="M0 0H74V88H0z"/></clipPath><clipPath id="j"><path d="M 139.6875 135 L 231.1875 135 L 231.1875 219 L 139.6875 219 Z M 139.6875 135"/></clipPath><clipPath id="m"><path d="M 0.6875 0.839844 L 92.1875 0.839844 L 92.1875 83.878906 L 0.6875 83.878906 Z M 0.6875 0.839844"/></clipPath><clipPath id="l"><path d="M0 0H93V84H0z"/></clipPath><clipPath id="n"><path d="M 142 135 L 228 135 L 228 223.011719 L 142 223.011719 Z M 142 135"/></clipPath><clipPath id="q"><path d="M 0.558594 0.601562 L 85 0.601562 L 85 88.011719 L 0.558594 88.011719 Z M 0.558594 0.601562"/></clipPath><clipPath id="p"><path d="M0 0H86V89H0z"/></clipPath><clipPath id="r"><path d="M 164.820312 156.207031 L 206.070312 156.207031 L 206.070312 198.207031 L 164.820312 198.207031 Z M 164.820312 156.207031"/></clipPath><mask id="c"><g filter="url(#a)"><path fill-opacity=".498" d="M-37.5 -37.5H412.5V412.5H-37.5z"/></g></mask><mask id="g"><g filter="url(#a)"><path fill-opacity=".498" d="M-37.5 -37.5H412.5V412.5H-37.5z"/></g></mask><mask id="k"><g filter="url(#a)"><path fill-opacity=".498" d="M-37.5 -37.5H412.5V412.5H-37.5z"/></g></mask><mask id="o"><g filter="url(#a)"><path fill-opacity=".498" d="M-37.5 -37.5H412.5V412.5H-37.5z"/></g></mask><filter x="0%" y="0%" width="100%" xlink:type="simple" xlink:actuate="onLoad" height="100%" id="a" xlink:show="other"><feColorMatrix values="0 0 0 0 1 0 0 0 0 1 0 0 0 0 1 0 0 0 1 0" color-interpolation-filters="sRGB"/></filter></defs><g clip-path="url(#b)"><path fill="#5E17EB" d="M 223.34375 133.011719 C 216.921875 133.011719 211.71875 137.613281 211.71875 143.292969 C 211.71875 146.203125 213.082031 148.832031 215.277344 150.699219 C 216.089844 151.394531 216.1875 153.578125 212.613281 156.261719 C 217.976562 155.367188 219.484375 153.023438 220.265625 153.210938 C 221.246094 153.449219 222.277344 153.578125 223.34375 153.578125 C 229.761719 153.578125 234.96875 148.972656 234.96875 143.292969 C 234.96875 137.613281 229.761719 133.011719 223.34375 133.011719 Z M 223.34375 152.683594 C 222.371094 152.683594 221.40625 152.570312 220.472656 152.34375 C 220.378906 152.320312 220.273438 152.308594 220.171875 152.308594 C 219.648438 152.308594 219.207031 152.597656 218.597656 152.996094 C 217.953125 153.417969 217.039062 154.019531 215.636719 154.546875 C 216.386719 153.5 216.613281 152.617188 216.632812 151.960938 C 216.660156 151.167969 216.375 150.460938 215.855469 150.019531 C 213.765625 148.234375 212.613281 145.847656 212.613281 143.292969 C 212.613281 138.117188 217.425781 133.90625 223.34375 133.90625 C 229.257812 133.90625 234.074219 138.117188 234.074219 143.292969 C 234.074219 148.472656 229.257812 152.683594 223.34375 152.683594 Z M 223.34375 152.683594"/></g><g mask="url(#c)"><g><g clip-path="url(#d)" transform="translate(144 137)"><g clip-path="url(#e)"><path fill="#5E17EB" d="M 55.4375 76.144531 L 18.164062 70.683594 C 17.070312 70.523438 15.996094 70.269531 14.945312 69.925781 C 13.894531 69.582031 12.882812 69.148438 11.90625 68.625 C 10.929688 68.105469 10.007812 67.503906 9.136719 66.824219 C 8.265625 66.144531 7.460938 65.394531 6.722656 64.574219 C 5.980469 63.753906 5.316406 62.878906 4.730469 61.941406 C 4.144531 61.007812 3.640625 60.03125 3.226562 59.011719 C 2.808594 57.988281 2.484375 56.941406 2.25 55.863281 C 2.019531 54.785156 1.878906 53.695312 1.835938 52.59375 L 0.585938 20.894531 C 0.0820312 8.046875 12.257812 -1.601562 24.730469 1.785156 L 67.210938 13.324219 C 68.332031 13.632812 69.417969 14.035156 70.46875 14.539062 C 71.515625 15.039062 72.511719 15.632812 73.449219 16.316406 C 74.390625 17 75.261719 17.761719 76.0625 18.601562 C 76.859375 19.445312 77.578125 20.351562 78.210938 21.324219 C 78.84375 22.296875 79.386719 23.316406 79.832031 24.386719 C 80.277344 25.457031 80.625 26.558594 80.867188 27.691406 C 81.113281 28.824219 81.253906 29.96875 81.285156 31.128906 C 81.320312 32.285156 81.25 33.4375 81.074219 34.582031 L 77.117188 60.199219 C 77.023438 60.8125 76.898438 61.421875 76.746094 62.023438 C 76.589844 62.625 76.40625 63.21875 76.195312 63.800781 C 75.984375 64.386719 75.742188 64.957031 75.472656 65.519531 C 75.203125 66.078125 74.910156 66.625 74.585938 67.15625 C 74.261719 67.6875 73.914062 68.203125 73.542969 68.699219 C 73.167969 69.199219 72.773438 69.675781 72.351562 70.136719 C 71.933594 70.59375 71.492188 71.03125 71.027344 71.449219 C 70.566406 71.863281 70.082031 72.257812 69.582031 72.625 C 69.078125 72.996094 68.5625 73.335938 68.027344 73.65625 C 67.488281 73.976562 66.941406 74.265625 66.375 74.53125 C 65.8125 74.796875 65.234375 75.03125 64.648438 75.242188 C 64.0625 75.449219 63.464844 75.628906 62.859375 75.78125 C 62.253906 75.929688 61.644531 76.050781 61.027344 76.144531 C 60.410156 76.234375 59.789062 76.296875 59.167969 76.324219 C 58.542969 76.355469 57.921875 76.355469 57.296875 76.328125 C 56.675781 76.296875 56.054688 76.234375 55.4375 76.144531 Z M 55.4375 76.144531"/></g></g></g></g><g clip-path="url(#f)"><g mask="url(#g)"><g><g clip-path="url(#h)" transform="translate(145 133)"><g clip-path="url(#i)"><path fill="#5E17EB" d="M 9.984375 73.316406 L 0.835938 36.917969 C 0.566406 35.847656 0.394531 34.765625 0.3125 33.664062 C 0.234375 32.566406 0.25 31.46875 0.363281 30.371094 C 0.472656 29.277344 0.679688 28.199219 0.980469 27.136719 C 1.28125 26.078125 1.667969 25.050781 2.148438 24.058594 C 2.628906 23.0625 3.1875 22.117188 3.832031 21.222656 C 4.476562 20.328125 5.191406 19.492188 5.980469 18.71875 C 6.769531 17.945312 7.621094 17.25 8.53125 16.621094 C 9.445312 15.996094 10.402344 15.453125 11.40625 14.996094 L 40.363281 1.761719 C 52.105469 -3.605469 65.699219 3.929688 67.304688 16.691406 L 72.789062 60.199219 C 72.933594 61.347656 72.972656 62.503906 72.90625 63.660156 C 72.835938 64.816406 72.667969 65.957031 72.390625 67.082031 C 72.113281 68.207031 71.738281 69.300781 71.261719 70.355469 C 70.785156 71.414062 70.21875 72.417969 69.554688 73.375 C 68.894531 74.328125 68.152344 75.214844 67.332031 76.03125 C 66.507812 76.851562 65.617188 77.589844 64.65625 78.246094 C 63.699219 78.902344 62.6875 79.46875 61.628906 79.941406 C 60.566406 80.414062 59.46875 80.789062 58.335938 81.0625 L 33.046875 87.191406 C 32.441406 87.339844 31.828125 87.457031 31.210938 87.542969 C 30.59375 87.628906 29.976562 87.6875 29.351562 87.714844 C 28.730469 87.742188 28.105469 87.738281 27.484375 87.703125 C 26.863281 87.667969 26.242188 87.605469 25.625 87.511719 C 25.007812 87.417969 24.398438 87.292969 23.796875 87.140625 C 23.191406 86.984375 22.597656 86.804688 22.007812 86.589844 C 21.421875 86.378906 20.847656 86.140625 20.285156 85.871094 C 19.722656 85.605469 19.175781 85.308594 18.640625 84.988281 C 18.109375 84.667969 17.589844 84.320312 17.09375 83.949219 C 16.59375 83.578125 16.113281 83.183594 15.652344 82.765625 C 15.191406 82.347656 14.75 81.910156 14.332031 81.449219 C 13.914062 80.988281 13.523438 80.507812 13.152344 80.007812 C 12.78125 79.507812 12.4375 78.992188 12.117188 78.457031 C 11.796875 77.925781 11.503906 77.378906 11.238281 76.816406 C 10.972656 76.253906 10.734375 75.683594 10.523438 75.097656 C 10.3125 74.511719 10.132812 73.917969 9.984375 73.316406 Z M 9.984375 73.316406"/></g></g></g></g></g><g clip-path="url(#j)"><g mask="url(#k)"><g><g clip-path="url(#l)" transform="translate(139 135)"><g clip-path="url(#m)"><path fill="#5E17EB" d="M 6.894531 31.265625 L 34.6875 5.929688 C 35.503906 5.1875 36.378906 4.519531 37.3125 3.925781 C 38.246094 3.332031 39.222656 2.824219 40.242188 2.402344 C 41.265625 1.976562 42.316406 1.644531 43.394531 1.402344 C 44.472656 1.160156 45.566406 1.011719 46.671875 0.957031 C 47.777344 0.90625 48.878906 0.945312 49.976562 1.082031 C 51.074219 1.21875 52.152344 1.449219 53.210938 1.773438 C 54.269531 2.097656 55.289062 2.507812 56.277344 3.007812 C 57.261719 3.507812 58.195312 4.089844 59.082031 4.753906 L 84.554688 23.8125 C 94.882812 31.539062 94.699219 47.023438 84.191406 54.511719 L 48.375 80.019531 C 47.429688 80.695312 46.429688 81.277344 45.375 81.769531 C 44.320312 82.261719 43.234375 82.65625 42.105469 82.949219 C 40.980469 83.246094 39.839844 83.433594 38.675781 83.519531 C 37.515625 83.605469 36.359375 83.589844 35.203125 83.464844 C 34.042969 83.339844 32.910156 83.113281 31.792969 82.78125 C 30.679688 82.449219 29.601562 82.019531 28.566406 81.496094 C 27.527344 80.96875 26.546875 80.351562 25.625 79.648438 C 24.699219 78.941406 23.847656 78.160156 23.070312 77.300781 L 5.621094 58.070312 C 5.203125 57.609375 4.808594 57.128906 4.4375 56.628906 C 4.066406 56.128906 3.71875 55.613281 3.398438 55.082031 C 3.078125 54.550781 2.785156 54.003906 2.519531 53.441406 C 2.253906 52.878906 2.015625 52.304688 1.804688 51.722656 C 1.59375 51.136719 1.414062 50.542969 1.261719 49.941406 C 1.109375 49.339844 0.988281 48.730469 0.894531 48.117188 C 0.804688 47.503906 0.742188 46.886719 0.710938 46.265625 C 0.679688 45.644531 0.679688 45.027344 0.707031 44.40625 C 0.738281 43.785156 0.796875 43.167969 0.886719 42.554688 C 0.976562 41.941406 1.097656 41.332031 1.246094 40.726562 C 1.398438 40.125 1.578125 39.53125 1.785156 38.945312 C 1.992188 38.363281 2.230469 37.789062 2.496094 37.226562 C 2.761719 36.664062 3.050781 36.117188 3.371094 35.582031 C 3.6875 35.046875 4.03125 34.53125 4.402344 34.03125 C 4.769531 33.53125 5.164062 33.050781 5.582031 32.585938 C 5.996094 32.125 6.4375 31.683594 6.894531 31.265625 Z M 6.894531 31.265625"/></g></g></g></g></g><g clip-path="url(#n)"><g mask="url(#o)"><g><g clip-path="url(#p)" transform="translate(142 135)"><g clip-path="url(#q)"><path fill="#5E17EB" d="M 43.210938 3.601562 L 75.535156 22.878906 C 76.484375 23.445312 77.378906 24.089844 78.214844 24.8125 C 79.050781 25.53125 79.820312 26.316406 80.519531 27.171875 C 81.21875 28.023438 81.839844 28.933594 82.382812 29.890625 C 82.921875 30.851562 83.378906 31.851562 83.746094 32.890625 C 84.113281 33.929688 84.386719 34.996094 84.566406 36.082031 C 84.75 37.167969 84.835938 38.261719 84.828125 39.363281 C 84.820312 40.464844 84.714844 41.558594 84.515625 42.640625 C 84.316406 43.722656 84.023438 44.78125 83.640625 45.816406 L 72.582031 75.566406 C 68.097656 87.632812 53.136719 91.886719 42.933594 83.996094 L 8.144531 57.121094 C 7.226562 56.410156 6.378906 55.621094 5.605469 54.757812 C 4.828125 53.894531 4.140625 52.964844 3.535156 51.976562 C 2.929688 50.984375 2.421875 49.949219 2.003906 48.867188 C 1.589844 47.785156 1.277344 46.671875 1.066406 45.535156 C 0.855469 44.394531 0.75 43.246094 0.75 42.085938 C 0.75 40.925781 0.855469 39.777344 1.066406 38.636719 C 1.277344 37.5 1.589844 36.386719 2.003906 35.304688 C 2.417969 34.222656 2.925781 33.183594 3.53125 32.195312 L 17.050781 10.046875 C 17.375 9.515625 17.722656 9 18.097656 8.503906 C 18.472656 8.007812 18.867188 7.53125 19.289062 7.074219 C 19.710938 6.617188 20.152344 6.179688 20.617188 5.765625 C 21.082031 5.351562 21.566406 4.957031 22.066406 4.589844 C 22.570312 4.222656 23.089844 3.882812 23.625 3.566406 C 24.164062 3.246094 24.710938 2.957031 25.277344 2.695312 C 25.84375 2.429688 26.417969 2.195312 27.007812 1.988281 C 27.59375 1.78125 28.191406 1.601562 28.796875 1.453125 C 29.402344 1.304688 30.011719 1.183594 30.628906 1.097656 C 31.246094 1.007812 31.867188 0.945312 32.488281 0.917969 C 33.113281 0.886719 33.734375 0.890625 34.355469 0.921875 C 34.980469 0.953125 35.597656 1.015625 36.214844 1.105469 C 36.832031 1.199219 37.445312 1.320312 38.046875 1.472656 C 38.652344 1.621094 39.25 1.804688 39.835938 2.011719 C 40.421875 2.222656 41 2.460938 41.5625 2.726562 C 42.125 2.992188 42.675781 3.28125 43.210938 3.601562 Z M 43.210938 3.601562"/></g></g></g></g></g><g clip-path="url(#r)"><path fill="#FFF" d="M 185.445312 183.03125 L 180.210938 174.660156 L 183.449219 174.660156 L 185.445312 177.855469 L 187.445312 174.660156 L 190.683594 174.660156 Z M 195.582031 198.214844 L 192.835938 198.214844 L 192.835938 182.667969 L 186.230469 192.632812 L 184.574219 192.632812 L 178.058594 182.800781 L 178.058594 198.214844 L 175.308594 198.214844 L 175.308594 174.660156 L 185.402344 188.914062 L 195.582031 174.527344 Z M 202.3125 198.214844 L 199.5625 198.214844 L 199.5625 174.660156 L 197.164062 172.191406 L 197.164062 161.921875 L 193.402344 161.921875 L 193.402344 168.324219 C 190.785156 165.628906 188.128906 162.898438 185.445312 160.144531 C 182.550781 163.121094 172.238281 173.726562 171.332031 174.660156 L 171.332031 198.214844 L 168.582031 198.214844 L 168.582031 177.371094 L 164.867188 177.371094 C 173.894531 168.09375 182.996094 158.734375 184.457031 157.226562 L 185.445312 156.210938 L 186.433594 157.226562 C 187.449219 158.269531 189.128906 159.996094 190.652344 161.5625 L 190.652344 159.1875 L 199.914062 159.1875 L 199.914062 171.085938 L 206.023438 177.371094 L 202.3125 177.371094 L 202.3125 198.214844"/></g></svg>