<svg xmlns="http://www.w3.org/2000/svg" xmlns:xlink="http://www.w3.org/1999/xlink" width="500" viewBox="0 0 900 1000" height="500" version="1.0"><defs><clipPath id="d"><path d="M 0.480469 0.160156 L 168.238281 0.160156 L 168.238281 157.359375 L 0.480469 157.359375 Z M 0.480469 0.160156"/></clipPath><clipPath id="c"><path d="M0 0H169V158H0z"/></clipPath><clipPath id="e"><path d="M 103 93.796875 L 256 93.796875 L 256 277 L 103 277 Z M 103 93.796875"/></clipPath><clipPath id="h"><path d="M 1 0.796875 L 152 0.796875 L 152 183.71875 L 1 183.71875 Z M 1 0.796875"/></clipPath><clipPath id="g"><path d="M0 0H153V184H0z"/></clipPath><clipPath id="i"><path d="M 92.644531 99 L 282.394531 99 L 282.394531 273 L 92.644531 273 Z M 92.644531 99"/></clipPath><clipPath id="l"><path d="M 0.644531 0.839844 L 190.394531 0.839844 L 190.394531 173.398438 L 0.644531 173.398438 Z M 0.644531 0.839844"/></clipPath><clipPath id="k"><path d="M0 0H191V174H0z"/></clipPath><clipPath id="m"><path d="M 98 99 L 274 99 L 274 281.296875 L 98 281.296875 Z M 98 99"/></clipPath><clipPath id="p"><path d="M 0.878906 0.359375 L 175.839844 0.359375 L 175.839844 182.296875 L 0.878906 182.296875 Z M 0.878906 0.359375"/></clipPath><clipPath id="o"><path d="M0 0H176V183H0z"/></clipPath><clipPath id="q"><path d="M 144.882812 142.003906 L 230.382812 142.003906 L 230.382812 229.003906 L 144.882812 229.003906 Z M 144.882812 142.003906"/></clipPath><clipPath id="r"><path d="M 245.605469 112 L 281 112 L 281 147.019531 L 245.605469 147.019531 Z M 245.605469 112"/></clipPath><mask id="b"><g filter="url(#a)"><path fill-opacity=".498" d="M-37.5 -37.5H412.5V412.5H-37.5z"/></g></mask><mask id="f"><g filter="url(#a)"><path fill-opacity=".498" d="M-37.5 -37.5H412.5V412.5H-37.5z"/></g></mask><mask id="j"><g filter="url(#a)"><path fill-opacity=".498" d="M-37.5 -37.5H412.5V412.5H-37.5z"/></g></mask><mask id="n"><g filter="url(#a)"><path fill-opacity=".498" d="M-37.5 -37.5H412.5V412.5H-37.5z"/></g></mask><filter x="0%" y="0%" width="100%" xlink:type="simple" xlink:actuate="onLoad" height="100%" id="a" xlink:show="other"><feColorMatrix values="0 0 0 0 1 0 0 0 0 1 0 0 0 0 1 0 0 0 1 0" color-interpolation-filters="sRGB"/></filter></defs><g mask="url(#b)"><g><g clip-path="url(#c)" transform="translate(102 104)"><g clip-path="url(#d)"><path fill="#5E17EB" d="M 114.554688 156.738281 L 37.257812 145.359375 C 36.125 145.195312 35 144.980469 33.886719 144.714844 C 32.769531 144.453125 31.671875 144.140625 30.582031 143.78125 C 29.496094 143.421875 28.425781 143.015625 27.371094 142.5625 C 26.320312 142.113281 25.289062 141.613281 24.277344 141.074219 C 23.269531 140.53125 22.285156 139.949219 21.328125 139.320312 C 20.367188 138.695312 19.4375 138.027344 18.535156 137.320312 C 17.636719 136.613281 16.765625 135.867188 15.929688 135.085938 C 15.09375 134.300781 14.292969 133.484375 13.527344 132.632812 C 12.761719 131.78125 12.035156 130.898438 11.34375 129.980469 C 10.65625 129.066406 10.007812 128.125 9.398438 127.152344 C 8.792969 126.179688 8.226562 125.183594 7.707031 124.164062 C 7.1875 123.144531 6.710938 122.101562 6.277344 121.042969 C 5.847656 119.980469 5.464844 118.902344 5.125 117.808594 C 4.789062 116.710938 4.5 115.605469 4.257812 114.484375 C 4.015625 113.363281 3.824219 112.234375 3.679688 111.097656 C 3.535156 109.960938 3.441406 108.820312 3.398438 107.675781 L 0.808594 41.640625 C -0.242188 14.875 25.011719 -5.21875 50.875 1.835938 L 138.96875 25.875 C 140.128906 26.191406 141.273438 26.5625 142.402344 26.984375 C 143.53125 27.40625 144.636719 27.875 145.722656 28.398438 C 146.808594 28.921875 147.867188 29.492188 148.898438 30.109375 C 149.933594 30.730469 150.9375 31.394531 151.910156 32.105469 C 152.882812 32.8125 153.820312 33.566406 154.722656 34.363281 C 155.628906 35.160156 156.492188 35.992188 157.320312 36.867188 C 158.148438 37.742188 158.9375 38.652344 159.679688 39.601562 C 160.425781 40.546875 161.125 41.523438 161.78125 42.535156 C 162.4375 43.546875 163.046875 44.582031 163.605469 45.648438 C 164.167969 46.714844 164.679688 47.804688 165.140625 48.914062 C 165.605469 50.027344 166.015625 51.160156 166.375 52.308594 C 166.734375 53.457031 167.039062 54.621094 167.292969 55.800781 C 167.546875 56.976562 167.742188 58.164062 167.890625 59.359375 C 168.035156 60.554688 168.125 61.753906 168.160156 62.960938 C 168.195312 64.164062 168.175781 65.367188 168.101562 66.570312 C 168.027344 67.769531 167.898438 68.96875 167.714844 70.15625 L 159.515625 123.519531 C 159.320312 124.800781 159.0625 126.066406 158.742188 127.320312 C 158.421875 128.574219 158.042969 129.808594 157.601562 131.023438 C 157.160156 132.242188 156.660156 133.433594 156.101562 134.597656 C 155.546875 135.765625 154.933594 136.902344 154.261719 138.011719 C 153.59375 139.117188 152.875 140.191406 152.101562 141.226562 C 151.328125 142.265625 150.503906 143.261719 149.632812 144.21875 C 148.761719 145.171875 147.847656 146.085938 146.886719 146.949219 C 145.925781 147.816406 144.925781 148.636719 143.882812 149.402344 C 142.84375 150.171875 141.769531 150.886719 140.660156 151.550781 C 139.546875 152.214844 138.40625 152.824219 137.238281 153.375 C 136.066406 153.925781 134.875 154.417969 133.65625 154.855469 C 132.4375 155.289062 131.203125 155.664062 129.945312 155.976562 C 128.691406 156.289062 127.425781 156.542969 126.144531 156.730469 C 124.867188 156.921875 123.582031 157.046875 122.289062 157.113281 C 120.996094 157.175781 119.707031 157.175781 118.414062 157.113281 C 117.121094 157.050781 115.835938 156.925781 114.554688 156.738281 Z M 114.554688 156.738281"/></g></g></g></g><g clip-path="url(#e)"><g mask="url(#f)"><g><g clip-path="url(#g)" transform="translate(103 93)"><g clip-path="url(#h)"><path fill="#5E17EB" d="M 21.363281 153.511719 L 2.398438 77.6875 C 2.117188 76.574219 1.890625 75.453125 1.707031 74.324219 C 1.527344 73.191406 1.398438 72.054688 1.3125 70.914062 C 1.230469 69.769531 1.199219 68.625 1.214844 67.480469 C 1.234375 66.335938 1.300781 65.191406 1.414062 64.054688 C 1.53125 62.914062 1.695312 61.78125 1.910156 60.65625 C 2.125 59.53125 2.386719 58.417969 2.695312 57.3125 C 3.007812 56.210938 3.363281 55.125 3.769531 54.050781 C 4.171875 52.980469 4.625 51.929688 5.117188 50.894531 C 5.613281 49.863281 6.152344 48.855469 6.738281 47.867188 C 7.320312 46.882812 7.945312 45.921875 8.613281 44.992188 C 9.277344 44.058594 9.984375 43.160156 10.726562 42.289062 C 11.472656 41.417969 12.25 40.582031 13.070312 39.777344 C 13.886719 38.976562 14.734375 38.207031 15.617188 37.480469 C 16.5 36.75 17.414062 36.0625 18.359375 35.410156 C 19.300781 34.761719 20.269531 34.152344 21.265625 33.585938 C 22.261719 33.019531 23.277344 32.496094 24.320312 32.019531 L 84.363281 4.453125 C 108.714844 -6.726562 136.90625 8.96875 140.242188 35.558594 L 151.605469 126.1875 C 151.757812 127.382812 151.851562 128.582031 151.894531 129.785156 C 151.933594 130.988281 151.917969 132.191406 151.851562 133.394531 C 151.78125 134.597656 151.65625 135.792969 151.480469 136.984375 C 151.300781 138.175781 151.070312 139.355469 150.785156 140.523438 C 150.496094 141.695312 150.160156 142.851562 149.769531 143.988281 C 149.378906 145.128906 148.9375 146.246094 148.445312 147.347656 C 147.949219 148.445312 147.410156 149.519531 146.820312 150.570312 C 146.226562 151.617188 145.589844 152.636719 144.90625 153.628906 C 144.222656 154.621094 143.496094 155.578125 142.726562 156.503906 C 141.953125 157.429688 141.144531 158.316406 140.292969 159.167969 C 139.441406 160.019531 138.550781 160.832031 137.625 161.601562 C 136.699219 162.371094 135.742188 163.097656 134.75 163.78125 C 133.757812 164.464844 132.734375 165.101562 131.6875 165.691406 C 130.636719 166.28125 129.5625 166.820312 128.464844 167.3125 C 127.363281 167.804688 126.246094 168.246094 125.105469 168.632812 C 123.964844 169.023438 122.8125 169.363281 121.640625 169.644531 L 69.195312 182.417969 C 67.9375 182.722656 66.671875 182.964844 65.390625 183.148438 C 64.109375 183.328125 62.824219 183.449219 61.53125 183.503906 C 60.242188 183.558594 58.949219 183.550781 57.660156 183.480469 C 56.367188 183.410156 55.082031 183.277344 53.804688 183.082031 C 52.527344 182.886719 51.261719 182.625 50.007812 182.308594 C 48.753906 181.988281 47.519531 181.605469 46.304688 181.164062 C 45.089844 180.722656 43.898438 180.226562 42.730469 179.667969 C 41.566406 179.109375 40.429688 178.496094 39.320312 177.828125 C 38.214844 177.160156 37.144531 176.4375 36.109375 175.664062 C 35.070312 174.890625 34.074219 174.066406 33.121094 173.195312 C 32.164062 172.324219 31.253906 171.410156 30.386719 170.449219 C 29.519531 169.488281 28.703125 168.488281 27.9375 167.449219 C 27.167969 166.40625 26.453125 165.332031 25.789062 164.222656 C 25.125 163.113281 24.519531 161.972656 23.964844 160.800781 C 23.414062 159.632812 22.921875 158.4375 22.488281 157.21875 C 22.050781 156.003906 21.679688 154.765625 21.363281 153.511719 Z M 21.363281 153.511719"/></g></g></g></g></g><g clip-path="url(#i)"><g mask="url(#j)"><g><g clip-path="url(#k)" transform="translate(92 99)"><g clip-path="url(#l)"><path fill="#5E17EB" d="M 13.519531 64.082031 L 71.15625 11.304688 C 72.003906 10.53125 72.878906 9.792969 73.789062 9.097656 C 74.695312 8.398438 75.632812 7.742188 76.597656 7.125 C 77.5625 6.511719 78.554688 5.9375 79.566406 5.40625 C 80.582031 4.875 81.621094 4.390625 82.675781 3.949219 C 83.734375 3.507812 84.808594 3.113281 85.898438 2.765625 C 86.988281 2.417969 88.09375 2.121094 89.210938 1.867188 C 90.328125 1.617188 91.453125 1.414062 92.589844 1.257812 C 93.722656 1.105469 94.863281 1 96.007812 0.945312 C 97.152344 0.886719 98.292969 0.882812 99.4375 0.925781 C 100.582031 0.96875 101.722656 1.0625 102.859375 1.207031 C 103.996094 1.347656 105.125 1.539062 106.246094 1.78125 C 107.363281 2.019531 108.472656 2.308594 109.566406 2.644531 C 110.660156 2.980469 111.738281 3.363281 112.800781 3.792969 C 113.863281 4.222656 114.902344 4.699219 115.921875 5.21875 C 116.945312 5.738281 117.941406 6.300781 118.910156 6.90625 C 119.882812 7.511719 120.828125 8.160156 121.742188 8.847656 L 174.566406 48.550781 C 195.980469 64.648438 195.601562 96.902344 173.816406 112.507812 L 99.539062 165.644531 C 98.5625 166.34375 97.550781 167 96.511719 167.609375 C 95.472656 168.214844 94.410156 168.777344 93.320312 169.289062 C 92.230469 169.800781 91.117188 170.261719 89.984375 170.671875 C 88.851562 171.082031 87.703125 171.441406 86.539062 171.746094 C 85.375 172.050781 84.199219 172.304688 83.011719 172.503906 C 81.824219 172.699219 80.628906 172.84375 79.429688 172.933594 C 78.226562 173.023438 77.027344 173.058594 75.820312 173.039062 C 74.617188 173.019531 73.417969 172.945312 72.21875 172.816406 C 71.023438 172.6875 69.832031 172.503906 68.652344 172.265625 C 67.472656 172.027344 66.304688 171.738281 65.152344 171.394531 C 63.996094 171.046875 62.863281 170.652344 61.742188 170.207031 C 60.625 169.757812 59.53125 169.261719 58.457031 168.714844 C 57.386719 168.164062 56.339844 167.570312 55.320312 166.929688 C 54.304688 166.285156 53.316406 165.597656 52.359375 164.867188 C 51.402344 164.132812 50.484375 163.359375 49.597656 162.542969 C 48.714844 161.726562 47.867188 160.871094 47.058594 159.976562 L 10.875 119.914062 C 10.007812 118.957031 9.1875 117.957031 8.417969 116.917969 C 7.648438 115.875 6.933594 114.800781 6.269531 113.691406 C 5.605469 112.582031 4.996094 111.441406 4.445312 110.273438 C 3.894531 109.105469 3.398438 107.910156 2.960938 106.691406 C 2.527344 105.476562 2.152344 104.238281 1.835938 102.984375 C 1.523438 101.730469 1.269531 100.464844 1.078125 99.183594 C 0.886719 97.90625 0.757812 96.621094 0.695312 95.328125 C 0.628906 94.035156 0.628906 92.742188 0.6875 91.453125 C 0.75 90.160156 0.875 88.875 1.0625 87.59375 C 1.25 86.316406 1.496094 85.046875 1.808594 83.792969 C 2.121094 82.535156 2.492188 81.300781 2.921875 80.082031 C 3.355469 78.859375 3.84375 77.664062 4.394531 76.496094 C 4.945312 75.324219 5.546875 74.183594 6.207031 73.070312 C 6.871094 71.957031 7.582031 70.882812 8.347656 69.839844 C 9.113281 68.796875 9.929688 67.796875 10.792969 66.832031 C 11.65625 65.871094 12.566406 64.953125 13.519531 64.082031 Z M 13.519531 64.082031"/></g></g></g></g></g><g clip-path="url(#m)"><g mask="url(#n)"><g><g clip-path="url(#o)" transform="translate(98 99)"><g clip-path="url(#p)"><path fill="#5E17EB" d="M 89.046875 6.453125 L 156.085938 46.613281 C 157.070312 47.203125 158.023438 47.832031 158.949219 48.503906 C 159.878906 49.175781 160.777344 49.882812 161.640625 50.632812 C 162.507812 51.382812 163.339844 52.167969 164.136719 52.988281 C 164.9375 53.808594 165.695312 54.664062 166.421875 55.550781 C 167.144531 56.4375 167.828125 57.355469 168.472656 58.300781 C 169.117188 59.246094 169.722656 60.21875 170.28125 61.21875 C 170.84375 62.21875 171.359375 63.238281 171.832031 64.28125 C 172.300781 65.324219 172.730469 66.386719 173.109375 67.46875 C 173.488281 68.546875 173.820312 69.644531 174.105469 70.75 C 174.390625 71.859375 174.628906 72.980469 174.816406 74.109375 C 175.003906 75.238281 175.144531 76.375 175.234375 77.515625 C 175.324219 78.660156 175.363281 79.800781 175.355469 80.949219 C 175.347656 82.09375 175.289062 83.234375 175.179688 84.375 C 175.070312 85.515625 174.914062 86.648438 174.707031 87.777344 C 174.5 88.902344 174.246094 90.015625 173.945312 91.121094 C 173.640625 92.226562 173.289062 93.316406 172.894531 94.390625 L 149.960938 156.367188 C 140.660156 181.5 109.636719 190.359375 88.472656 173.921875 L 16.332031 117.9375 C 15.382812 117.199219 14.46875 116.417969 13.585938 115.597656 C 12.707031 114.777344 11.867188 113.914062 11.0625 113.015625 C 10.261719 112.117188 9.503906 111.183594 8.785156 110.21875 C 8.070312 109.25 7.398438 108.25 6.773438 107.222656 C 6.144531 106.191406 5.566406 105.136719 5.039062 104.054688 C 4.507812 102.972656 4.027344 101.871094 3.601562 100.746094 C 3.171875 99.621094 2.792969 98.476562 2.46875 97.316406 C 2.144531 96.15625 1.871094 94.984375 1.652344 93.800781 C 1.433594 92.617188 1.269531 91.425781 1.160156 90.226562 C 1.050781 89.027344 0.996094 87.824219 0.996094 86.621094 C 0.996094 85.414062 1.050781 84.210938 1.160156 83.011719 C 1.269531 81.8125 1.433594 80.621094 1.652344 79.4375 C 1.867188 78.253906 2.140625 77.082031 2.464844 75.921875 C 2.789062 74.761719 3.164062 73.617188 3.59375 72.492188 C 4.023438 71.367188 4.503906 70.261719 5.03125 69.179688 C 5.5625 68.097656 6.136719 67.042969 6.765625 66.015625 L 34.796875 19.875 C 35.46875 18.769531 36.195312 17.699219 36.96875 16.664062 C 37.746094 15.632812 38.570312 14.636719 39.445312 13.683594 C 40.320312 12.730469 41.238281 11.820312 42.199219 10.957031 C 43.160156 10.09375 44.164062 9.277344 45.207031 8.511719 C 46.246094 7.746094 47.324219 7.035156 48.4375 6.375 C 49.546875 5.714844 50.691406 5.109375 51.859375 4.5625 C 53.03125 4.011719 54.226562 3.523438 55.445312 3.089844 C 56.664062 2.660156 57.902344 2.289062 59.15625 1.976562 C 60.414062 1.667969 61.679688 1.417969 62.960938 1.230469 C 64.238281 1.042969 65.523438 0.921875 66.816406 0.859375 C 68.109375 0.800781 69.398438 0.800781 70.691406 0.867188 C 71.980469 0.933594 73.265625 1.0625 74.546875 1.253906 C 75.824219 1.445312 77.089844 1.699219 78.34375 2.011719 C 79.597656 2.328125 80.835938 2.703125 82.050781 3.140625 C 83.269531 3.578125 84.460938 4.070312 85.632812 4.625 C 86.800781 5.179688 87.9375 5.785156 89.046875 6.453125 Z M 89.046875 6.453125"/></g></g></g></g></g><g clip-path="url(#q)"><path fill="#FFF" d="M 187.632812 197.570312 L 176.78125 180.226562 L 183.492188 180.226562 L 187.632812 186.847656 L 191.777344 180.226562 L 198.484375 180.226562 Z M 208.644531 229.023438 L 202.945312 229.023438 L 202.945312 196.820312 L 189.261719 217.457031 L 185.824219 217.457031 L 172.320312 197.09375 L 172.320312 229.023438 L 166.621094 229.023438 L 166.621094 180.226562 L 187.542969 209.757812 L 208.644531 179.953125 Z M 222.589844 229.023438 L 216.890625 229.023438 L 216.890625 180.226562 L 211.917969 175.117188 L 211.917969 153.84375 L 204.125 153.84375 L 204.125 167.105469 C 198.695312 161.527344 193.195312 155.871094 187.636719 150.160156 C 181.632812 156.328125 160.253906 178.296875 158.375 180.226562 L 158.375 229.023438 L 152.675781 229.023438 L 152.675781 185.847656 L 144.980469 185.847656 C 163.6875 166.625 182.550781 147.242188 185.582031 144.121094 L 187.628906 142.015625 L 189.679688 144.121094 C 191.78125 146.277344 195.265625 149.855469 198.425781 153.101562 L 198.425781 148.179688 L 217.617188 148.179688 L 217.617188 172.828125 L 230.285156 185.847656 L 222.589844 185.847656 L 222.589844 229.023438"/></g><path fill="#FFF" d="M 267.347656 113.699219 C 258.777344 111.773438 250.265625 117.128906 248.332031 125.65625 C 247.453125 129.527344 248.082031 133.386719 249.832031 136.628906 L 246.667969 146.078125 L 254.925781 142.253906 C 256.523438 143.332031 258.347656 144.140625 260.347656 144.585938 C 268.914062 146.511719 277.429688 141.15625 279.363281 132.628906 C 281.296875 124.097656 275.917969 115.621094 267.347656 113.699219"/><g clip-path="url(#r)"><path fill="#8C52FF" d="M 254.925781 141.308594 C 254.789062 141.308594 254.652344 141.335938 254.523438 141.394531 L 248.269531 144.292969 L 250.734375 136.925781 C 250.816406 136.679688 250.792969 136.410156 250.667969 136.179688 C 248.96875 133.023438 248.46875 129.363281 249.261719 125.867188 C 250.785156 119.136719 256.914062 114.253906 263.832031 114.253906 C 264.9375 114.253906 266.050781 114.378906 267.136719 114.621094 C 275.179688 116.429688 280.25 124.414062 278.433594 132.417969 C 276.910156 139.148438 270.78125 144.03125 263.863281 144.03125 C 262.757812 144.03125 261.644531 143.90625 260.554688 143.664062 C 258.71875 143.25 257.003906 142.511719 255.460938 141.46875 C 255.300781 141.363281 255.113281 141.308594 254.925781 141.308594 Z M 246.667969 147.027344 C 246.804688 147.027344 246.941406 147 247.070312 146.9375 L 254.847656 143.335938 C 256.46875 144.355469 258.246094 145.085938 260.136719 145.511719 C 261.363281 145.789062 262.617188 145.925781 263.863281 145.925781 C 267.625 145.925781 271.335938 144.640625 274.304688 142.304688 C 277.316406 139.9375 279.445312 136.574219 280.292969 132.835938 C 282.335938 123.808594 276.625 114.808594 267.558594 112.773438 C 266.332031 112.496094 265.078125 112.359375 263.832031 112.359375 C 260.070312 112.359375 256.359375 113.644531 253.390625 115.980469 C 250.375 118.347656 248.25 121.710938 247.402344 125.449219 C 246.539062 129.257812 247.035156 133.238281 248.800781 136.707031 L 245.761719 145.78125 C 245.644531 146.140625 245.75 146.535156 246.03125 146.785156 C 246.210938 146.945312 246.4375 147.027344 246.667969 147.027344"/></g></svg>